<?xml version="1.0" standalone="no"?>
<svg xmlns:xlink="http://www.w3.org/1999/xlink" id="wave" style="transform:rotate(180deg); transition: 0.3s" viewBox="0 0 1440 120" version="1.1" xmlns="http://www.w3.org/2000/svg"><defs><linearGradient id="sw-gradient-0" x1="0" x2="0" y1="1" y2="0"><stop stop-color="rgba(255, 232, 180, 1)" offset="0%"/><stop stop-color="rgba(247, 157, 101, 1)" offset="100%"/></linearGradient></defs><path style="transform:translate(0, 0px); opacity:1" fill="url(#sw-gradient-0)" d="M0,36L30,36C60,36,120,36,180,30C240,24,300,12,360,22C420,32,480,64,540,76C600,88,660,80,720,68C780,56,840,40,900,36C960,32,1020,40,1080,48C1140,56,1200,64,1260,74C1320,84,1380,96,1440,86C1500,76,1560,44,1620,38C1680,32,1740,52,1800,62C1860,72,1920,72,1980,60C2040,48,2100,24,2160,26C2220,28,2280,56,2340,56C2400,56,2460,28,2520,32C2580,36,2640,72,2700,74C2760,76,2820,44,2880,42C2940,40,3000,68,3060,80C3120,92,3180,88,3240,82C3300,76,3360,68,3420,66C3480,64,3540,68,3600,76C3660,84,3720,96,3780,96C3840,96,3900,84,3960,78C4020,72,4080,72,4140,76C4200,80,4260,88,4290,92L4320,96L4320,120L4290,120C4260,120,4200,120,4140,120C4080,120,4020,120,3960,120C3900,120,3840,120,3780,120C3720,120,3660,120,3600,120C3540,120,3480,120,3420,120C3360,120,3300,120,3240,120C3180,120,3120,120,3060,120C3000,120,2940,120,2880,120C2820,120,2760,120,2700,120C2640,120,2580,120,2520,120C2460,120,2400,120,2340,120C2280,120,2220,120,2160,120C2100,120,2040,120,1980,120C1920,120,1860,120,1800,120C1740,120,1680,120,1620,120C1560,120,1500,120,1440,120C1380,120,1320,120,1260,120C1200,120,1140,120,1080,120C1020,120,960,120,900,120C840,120,780,120,720,120C660,120,600,120,540,120C480,120,420,120,360,120C300,120,240,120,180,120C120,120,60,120,30,120L0,120Z"/><defs><linearGradient id="sw-gradient-1" x1="0" x2="0" y1="1" y2="0"><stop stop-color="rgba(255, 232, 180, 1)" offset="0%"/><stop stop-color="rgba(255, 232, 180, 1)" offset="100%"/></linearGradient></defs><path style="transform:translate(0, 50px); opacity:0.9" fill="url(#sw-gradient-1)" d="M0,48L30,46C60,44,120,40,180,36C240,32,300,28,360,36C420,44,480,64,540,60C600,56,660,28,720,16C780,4,840,8,900,20C960,32,1020,52,1080,66C1140,80,1200,88,1260,84C1320,80,1380,64,1440,58C1500,52,1560,56,1620,64C1680,72,1740,84,1800,82C1860,80,1920,64,1980,56C2040,48,2100,48,2160,56C2220,64,2280,80,2340,86C2400,92,2460,88,2520,74C2580,60,2640,36,2700,24C2760,12,2820,12,2880,16C2940,20,3000,28,3060,28C3120,28,3180,20,3240,32C3300,44,3360,76,3420,90C3480,104,3540,100,3600,94C3660,88,3720,80,3780,76C3840,72,3900,72,3960,60C4020,48,4080,24,4140,14C4200,4,4260,8,4290,10L4320,12L4320,120L4290,120C4260,120,4200,120,4140,120C4080,120,4020,120,3960,120C3900,120,3840,120,3780,120C3720,120,3660,120,3600,120C3540,120,3480,120,3420,120C3360,120,3300,120,3240,120C3180,120,3120,120,3060,120C3000,120,2940,120,2880,120C2820,120,2760,120,2700,120C2640,120,2580,120,2520,120C2460,120,2400,120,2340,120C2280,120,2220,120,2160,120C2100,120,2040,120,1980,120C1920,120,1860,120,1800,120C1740,120,1680,120,1620,120C1560,120,1500,120,1440,120C1380,120,1320,120,1260,120C1200,120,1140,120,1080,120C1020,120,960,120,900,120C840,120,780,120,720,120C660,120,600,120,540,120C480,120,420,120,360,120C300,120,240,120,180,120C120,120,60,120,30,120L0,120Z"/></svg>